<svg width="75" height="73" viewBox="0 0 75 73" fill="none" xmlns="http://www.w3.org/2000/svg">
<g clip-path="url(#clip0_1203_3175)">
<path d="M2.77002 28.6392L10.6121 25.8902V38.7229H21.1816V23.3636L36.4183 18.5713V72.9999L21.1816 68.8257L21.3338 50.4251L10.8694 50.5779L11.1759 65.8878L2.77002 63.1027V28.6392Z" fill="#0755E9"/>
<path d="M71.722 28.6392L63.8799 25.8902V38.7229H53.3104V23.3636L38.0737 18.5713V72.9999L53.3104 68.8257L53.1561 50.4251L63.6226 50.5779L63.3139 65.8878L71.722 63.1027V28.6392Z" fill="#0755E9"/>
<path d="M17.2126 6.14098L17.5079 13.4509C17.5079 13.4509 -0.185465 25.4272 0.0606494 26.3893C0.340325 27.4907 34.8209 15.0648 37.1255 15.9122C37.5797 14.6962 73.7898 27.1333 74.9264 26.5017C73.4094 23.7548 45.9498 5.69591 37.4387 0.0673828L24.2403 8.90804V5.16093L20.7522 4.02803L17.2126 6.14098Z" fill="black" stroke="black" stroke-width="0.5" stroke-miterlimit="10"/>
</g>
<defs>
<clipPath id="clip0_1203_3175">
<rect width="75" height="73" fill="white"/>
</clipPath>
</defs>
</svg>
